<svg width="80" height="75" viewBox="0 0 80 75" fill="none" xmlns="http://www.w3.org/2000/svg">
<path d="M5.3724 0.529297C2.38735 0.529297 0 2.87923 0 5.81581V57.7933C0 60.7298 2.38735 63.0798 5.3724 63.0798H30.4861C30.4861 67.9985 29.9637 68.5853 27.2026 69.9067H25.6354C24.3668 69.9067 23.3966 70.8611 23.3966 72.1092C23.3966 73.3572 24.3668 74.3116 25.6354 74.3116H53.6324C54.9011 74.3116 55.8712 73.3572 55.8712 72.1092C55.8712 70.8611 54.9011 69.9067 53.6324 69.9067H52.0653C49.3787 68.5853 48.7817 67.9251 48.7817 63.0798H73.7325C76.7175 63.0798 79.1049 60.7298 79.1049 57.7933V5.74366C79.1049 2.88057 76.7175 0.529968 73.7325 0.529968L5.3724 0.529297ZM5.3724 4.86134H73.805C74.2527 4.86134 74.7005 5.22907 74.7005 5.74297V46.4138H4.47688V5.74297C4.47688 5.30248 4.84935 4.86134 5.37173 4.86134H5.3724ZM4.47755 49.5156H74.6261V57.7923C74.6261 58.2327 74.2536 58.6739 73.7312 58.6739H5.37202C4.92427 58.6739 4.47717 58.3062 4.47717 57.7923L4.47755 49.5156ZM39.551 52.5071C38.3143 52.5071 37.3122 53.4929 37.3122 54.7095C37.3122 55.9261 38.3143 56.912 39.551 56.912C40.7876 56.912 41.7897 55.9261 41.7897 54.7095C41.7897 53.4929 40.7876 52.5071 39.551 52.5071ZM34.9623 63.0798H44.3028V69.6133H34.9623V63.0798Z" fill="#7365C4"/>
<path fill-rule="evenodd" clip-rule="evenodd" d="M31.8365 35.1047L47.748 35.1047C46.5354 38.2667 43.4308 40.5156 39.7923 40.5156C36.1538 40.5156 33.0492 38.2667 31.8365 35.1047Z" fill="#7365C4"/>
<path fill-rule="evenodd" clip-rule="evenodd" d="M31.2029 27.5187C32.5387 26.2001 33.3644 24.3811 33.3644 22.3724C33.3644 18.3461 30.0465 15.082 25.9537 15.082C21.8609 15.082 18.543 18.3461 18.543 22.3724C18.543 24.3811 19.3687 26.2001 20.7045 27.5187H31.2029Z" fill="#7365C4"/>
<path fill-rule="evenodd" clip-rule="evenodd" d="M58.2265 27.5185C59.5622 26.1999 60.3879 24.381 60.3879 22.3724C60.3879 18.3461 57.07 15.082 52.9771 15.082C48.8843 15.082 45.5664 18.3461 45.5664 22.3724C45.5664 24.381 46.3921 26.1999 47.7278 27.5185H58.2265Z" fill="#7365C4"/>
</svg>
